<?xml version="1.0" encoding="utf-8"?><svg viewBox="0 0 512 512" xmlns="http://www.w3.org/2000/svg" xmlns:xlink="http://www.w3.org/1999/xlink"><style>:root>svg{display:none}:root>svg:target{display:block}</style><svg viewBox="0 0 30 30" id="arrow" xmlns="http://www.w3.org/2000/svg"><g clip-path="url(#aclip0)"><path d="M28.314 12.648l.046.01H8.286l6.31-6.325c.31-.309.48-.727.48-1.166 0-.439-.17-.854-.48-1.164l-.981-.982a1.628 1.628 0 00-1.16-.48c-.438 0-.85.17-1.159.478L.478 13.836c-.31.31-.48.723-.478 1.162-.001.442.168.855.478 1.165L11.296 26.98c.309.308.72.478 1.16.478.438 0 .85-.17 1.159-.478l.982-.983c.309-.308.478-.72.478-1.159 0-.439-.17-.829-.478-1.137l-6.382-6.36h20.121c.904 0 1.664-.78 1.664-1.683v-1.39c0-.903-.782-1.621-1.686-1.621z"/></g><defs><clipPath id="aclip0"><path fill="#fff" d="M0 0h30v30H0z"/></clipPath></defs></svg><svg fill="none" viewBox="0 0 22 22" id="european-union" xmlns="http://www.w3.org/2000/svg"><path d="M11 22c6.075 0 11-4.925 11-11S17.075 0 11 0 0 4.925 0 11s4.925 11 11 11z" fill="#0052B4"/><path d="M11 4.305l.355 1.096h1.153l-.932.677.356 1.096-.933-.677-.932.677.356-1.096-.932-.677h1.152L11 4.305zM6.27 6.266l1.026.523.815-.815-.18 1.139 1.027.523-1.138.18-.18 1.138-.524-1.026-1.138.18.815-.815-.524-1.027zM4.307 11l1.096-.356V9.492l.678.932 1.096-.356-.678.932.678.933-1.096-.356-.678.932v-1.152L4.307 11zM6.27 15.735l.523-1.027-.815-.815 1.138.18.523-1.027.18 1.139 1.139.18-1.027.523.18 1.138-.815-.815-1.027.524zM11 17.696l-.357-1.096H9.491l.932-.677-.356-1.096.932.677.933-.677-.356 1.096.932.677h-1.152l-.357 1.096zM15.735 15.735l-1.027-.523-.815.814.18-1.138-1.027-.523 1.139-.18.18-1.139.523 1.027 1.138-.18-.815.815.524 1.027zM17.699 11l-1.096.357v1.152l-.678-.932-1.096.356.678-.933-.678-.932 1.096.356.678-.932v1.152l1.096.356zM15.735 6.266l-.524 1.027.815.815-1.138-.18-.523 1.026-.18-1.138-1.139-.18 1.027-.524-.18-1.138.815.815 1.027-.523z" fill="#FFDA44"/></svg><svg fill="none" viewBox="0 0 70 70" id="first-place" xmlns="http://www.w3.org/2000/svg"><g clip-path="url(#cclip0)"><path d="M5.029 19.471a44.979 44.979 0 015.319-4.958c.225-.178.55.035.474.313-1.074 3.949-2.951 7.851-5.845 10.753-.13-2.031-.132-4.08.052-6.108zM4.977 25.58a44.965 44.965 0 01-4.4-6.351c-.148-.258-.542-.166-.557.13-.233 4.61 1.528 10.005 5.82 12.181-.428-1.96-.736-3.956-.863-5.96zM5.84 31.538a43.23 43.23 0 013.608-6.127c.164-.232.53-.126.543.158.168 3.982-.516 8.192-2.424 11.688-.707-1.86-1.304-3.772-1.727-5.718zM7.568 37.258a46.633 46.633 0 01-6.053-4.631c-.22-.198-.563.009-.49.294 1.146 4.404 4.421 8.923 9.084 9.721-.969-1.73-1.837-3.528-2.541-5.384zM10.109 42.64c.38-2.36.923-4.611 1.68-6.862.09-.268.47-.273.565-.007 1.323 3.736 1.86 7.952 1.06 11.825-1.213-1.57-2.336-3.221-3.305-4.955zM13.415 47.598a47.572 47.572 0 01-7.123-2.651c-.267-.125-.535.173-.381.424 2.379 3.88 6.833 7.24 11.525 6.66-1.44-1.38-2.801-2.853-4.02-4.433z" fill="#FF901D"/><path d="M17.434 52.03a41.652 41.652 0 01-.414-7.081c.008-.283.37-.399.538-.171 2.37 3.212 4.138 7.115 4.56 11.071-1.647-1.158-3.23-2.423-4.683-3.819zM64.971 19.471a44.98 44.98 0 00-5.319-4.958c-.226-.178-.55.035-.475.313 1.075 3.949 2.952 7.851 5.846 10.753.13-2.031.132-4.08-.052-6.108zM65.023 25.58a44.966 44.966 0 004.4-6.351c.148-.258.541-.166.556.13.234 4.61-1.528 10.005-5.82 12.181.428-1.96.736-3.956.864-5.96z" fill="#FF901D"/><path d="M64.16 31.538a43.232 43.232 0 00-3.608-6.127c-.164-.232-.53-.126-.543.158-.168 3.982.516 8.192 2.424 11.688.707-1.86 1.304-3.772 1.727-5.718zM62.432 37.258a46.64 46.64 0 006.053-4.631c.22-.198.563.009.489.294-1.145 4.404-4.42 8.923-9.084 9.721.97-1.73 1.838-3.528 2.542-5.384z" fill="#FF901D"/><path d="M59.891 42.64a42.552 42.552 0 00-1.68-6.862c-.09-.268-.47-.273-.564-.007-1.324 3.736-1.86 7.952-1.062 11.825 1.214-1.57 2.337-3.221 3.306-4.955zM56.584 47.598a47.57 47.57 0 007.124-2.651c.267-.125.535.173.381.424-2.379 3.88-6.833 7.24-11.525 6.66 1.44-1.38 2.801-2.853 4.02-4.433z" fill="#FF901D"/><path d="M52.566 52.03c.337-2.378.48-4.697.414-7.081-.008-.283-.37-.399-.538-.171-2.37 3.212-4.137 7.115-4.56 11.071 1.647-1.158 3.23-2.423 4.684-3.819z" fill="#FF901D"/><path d="M27.905 58.02c-1.894-.934-3.625-1.95-5.145-3.02h-.001c-1.697-1.193-3.227-2.44-4.547-3.706l-.001-.001c-1.482-1.42-2.796-2.869-3.905-4.306v-.001c-1.251-1.619-2.332-3.238-3.212-4.813l-.002-.002c-.998-1.784-1.829-3.542-2.467-5.226l-.001-.002c-.73-1.92-1.294-3.788-1.678-5.553-.441-2.022-.723-3.969-.839-5.786v-.002c-.134-2.093-.117-4.088.05-5.93.002-.021.002-.044.002-.066.22-2.847.748-5.7 1.57-8.484a1.056 1.056 0 10-2.027-.598 43.38 43.38 0 00-1.657 9.013c-.002.02-.001.04-.002.06A40.942 40.942 0 004 25.738c.122 1.923.418 3.973.881 6.097l.001.005c.406 1.867 1 3.837 1.768 5.855.676 1.782 1.55 3.635 2.6 5.51l.002.002c.93 1.665 2.069 3.372 3.382 5.072l.002.001c1.171 1.519 2.555 3.045 4.112 4.537 1.399 1.342 3.012 2.658 4.797 3.912 1.61 1.133 3.435 2.205 5.426 3.187a1.053 1.053 0 001.415-.48 1.057 1.057 0 00-.48-1.415zM65.957 19.598l-.001-.061a43.364 43.364 0 00-1.658-9.013 1.057 1.057 0 00-2.026.598 41.282 41.282 0 011.569 8.484c0 .022 0 .045.002.067.167 1.84.184 3.835.05 5.929v.002c-.115 1.816-.397 3.763-.838 5.785-.384 1.766-.949 3.634-1.679 5.554v.002c-.64 1.684-1.47 3.442-2.47 5.227-.88 1.576-1.96 3.195-3.211 4.814v.001h-.001c-1.108 1.437-2.422 2.885-3.905 4.305v.001c-1.32 1.267-2.85 2.514-4.547 3.706L47.24 55c-1.52 1.07-3.251 2.086-5.145 3.02a1.056 1.056 0 10.935 1.894c1.99-.981 3.816-2.053 5.425-3.185l.001-.001c1.785-1.255 3.399-2.57 4.796-3.911l.002-.002c1.557-1.492 2.94-3.019 4.112-4.537h.001c1.314-1.702 2.453-3.409 3.384-5.074l.001-.003c1.05-1.874 1.924-3.727 2.599-5.507.767-2.017 1.36-3.986 1.767-5.852v-.001c.464-2.127.761-4.18.883-6.103v-.005c.139-2.157.123-4.22-.044-6.135z" fill="#F7BC14"/><path d="M28.997 40.47a12.915 12.915 0 01-8.376-3.088 13.008 13.008 0 01-4.586-9.922v-3.572c0-.413.162-.801.454-1.093.291-.29.678-.45 1.09-.45h.003l9.353.02a1.056 1.056 0 01-.002 2.113h-.003l-8.782-.02v3.002c0 3.205 1.4 6.234 3.842 8.312a10.797 10.797 0 008.737 2.446l.328-.055a1.057 1.057 0 01.364 2.08 12.911 12.911 0 01-2.423.227zM41.003 40.47c-.688 0-1.379-.055-2.068-.166a29.56 29.56 0 01-.355-.06 1.056 1.056 0 01.365-2.081c.11.02.22.038.328.055 3.13.507 6.314-.384 8.737-2.446a10.898 10.898 0 003.842-8.312V24.46l-8.783.02h-.002a1.056 1.056 0 01-.002-2.114l9.353-.02h.004c.41 0 .798.16 1.09.45.291.292.453.68.453 1.093v3.572c0 3.825-1.672 7.442-4.586 9.922a12.917 12.917 0 01-8.376 3.088z" fill="#FFB125"/><path d="M28.054 55.78h13.892c-5.754-7.297-5.154-17.814-5.154-17.814h-3.584s.6 10.517-5.154 17.814z" fill="#FED130"/><path d="M36.792 37.967h-3.584s.093 1.632-.146 4.058c-.456 4.622.69 9.285 3.396 13.061.168.234.342.466.522.694h4.966c-5.754-7.297-5.154-17.813-5.154-17.813z" fill="#F7BC14"/><path d="M24.52 19.317v9.217a17.16 17.16 0 006.982 13.815 5.897 5.897 0 006.996 0 17.16 17.16 0 006.98-13.815v-9.217H24.522z" fill="#FED130"/><path d="M40.49 19.317v9.217a17.16 17.16 0 01-6.982 13.815 5.894 5.894 0 01-1.003.595c1.928.9 4.23.703 5.992-.595a17.16 17.16 0 006.982-13.815v-9.217h-4.99z" fill="#F7BC14"/><path d="M46.23 20.757H23.77a.613.613 0 01-.613-.613v-2.54c0-.338.275-.613.613-.613h22.46c.339 0 .613.275.613.613v2.54a.613.613 0 01-.613.613z" fill="#FFB125"/><path d="M46.23 16.991h-4.377v3.766h4.377a.613.613 0 00.613-.613v-2.54a.613.613 0 00-.613-.613z" fill="#FF901D"/><path d="M46.917 60.234h-23.74a.494.494 0 01-.464-.666l1.763-4.776a.494.494 0 01.464-.324h20.214c.207 0 .392.13.464.323l1.763 4.777a.494.494 0 01-.464.666z" fill="#FFB125"/><path d="M47.38 59.568l-1.762-4.776a.494.494 0 00-.464-.324h-4.822l2.128 5.766h4.457a.494.494 0 00.464-.666z" fill="#FF901D"/></g><defs><clipPath id="cclip0"><path fill="#fff" d="M0 0h70v70H0z"/></clipPath></defs></svg><svg viewBox="0 0 512 512" id="instagram" xmlns="http://www.w3.org/2000/svg"><radialGradient id="db" cx="104.957" cy="447.447" gradientUnits="userSpaceOnUse" r="564.646"><stop offset="0" stop-color="#fae100"/><stop offset=".054" stop-color="#fadc04"/><stop offset=".117" stop-color="#fbce0e"/><stop offset=".183" stop-color="#fcb720"/><stop offset=".251" stop-color="#fe9838"/><stop offset=".305" stop-color="#ff7950"/><stop offset=".492" stop-color="#ff1c74"/><stop offset="1" stop-color="#6c1cd1"/></radialGradient><linearGradient id="dc" gradientUnits="userSpaceOnUse" x1="196.373" x2="-671.016" y1="222.46" y2="-265.446"><stop offset="0" stop-color="#a1b5d8" stop-opacity="0"/><stop offset=".309" stop-color="#90a2bd" stop-opacity=".31"/><stop offset=".755" stop-color="#7c8b9c" stop-opacity=".757"/><stop offset="1" stop-color="#748290"/></linearGradient><linearGradient id="dd" gradientUnits="userSpaceOnUse" x1="256" x2="256" y1="451.966" y2="531.774"><stop offset="0" stop-color="#fae100" stop-opacity="0"/><stop offset=".307" stop-color="#fca800" stop-opacity=".306"/><stop offset=".627" stop-color="#fe7300" stop-opacity=".627"/><stop offset=".869" stop-color="#ff5200" stop-opacity=".867"/><stop offset="1" stop-color="#ff4500"/></linearGradient><linearGradient id="da"><stop offset="0" stop-color="#833ab4" stop-opacity="0"/><stop offset="1" stop-color="#833ab4"/></linearGradient><linearGradient id="de" gradientUnits="userSpaceOnUse" x1="226.872" x2="100.161" xlink:href="#da" y1="226.148" y2="99.436"/><linearGradient id="df" gradientUnits="userSpaceOnUse" x1="350.9" x2="287.656" xlink:href="#da" y1="468.287" y2="170.138"/><linearGradient id="dg" gradientUnits="userSpaceOnUse" x1="374.965" x2="120.941" xlink:href="#da" y1="374.965" y2="120.941"/><linearGradient id="dh" gradientUnits="userSpaceOnUse" x1="393.807" x2="309.806" xlink:href="#da" y1="221.263" y2="137.262"/><linearGradient id="di" gradientUnits="userSpaceOnUse" x1="357.658" x2="150.543" y1="155.05" y2="362.165"><stop offset="0" stop-color="#833ab4"/><stop offset=".092" stop-color="#9c3495"/><stop offset=".293" stop-color="#dc2546"/><stop offset=".392" stop-color="#fd1d1d"/><stop offset=".559" stop-color="#fc6831"/><stop offset=".689" stop-color="#fc9b40"/><stop offset=".752" stop-color="#fcaf45"/><stop offset=".781" stop-color="#fdb750"/><stop offset=".866" stop-color="#fecb6a"/><stop offset=".942" stop-color="#ffd87a"/><stop offset="1" stop-color="#ffdc80"/></linearGradient><path d="M503.234 91.578c-4.66-43.664-39.144-78.156-82.812-82.812-109.508-11.688-219.336-11.688-328.84 0-43.668 4.66-78.156 39.148-82.816 82.812-11.688 109.504-11.688 219.336 0 328.84 4.66 43.668 39.148 78.156 82.812 82.816 109.504 11.688 219.336 11.688 328.844 0 43.668-4.66 78.152-39.148 82.812-82.816 11.688-109.504 11.688-219.332 0-328.84zm0 0" fill="url(#db)"/><path d="M475.387 110.098c-4.133-38.746-34.735-69.352-73.485-73.489-97.172-10.367-194.632-10.367-291.804 0-38.746 4.137-69.352 34.743-73.489 73.489-10.367 97.172-10.367 194.632 0 291.8 4.137 38.75 34.743 69.356 73.489 73.489 97.172 10.37 194.632 10.37 291.8 0 38.75-4.133 69.356-34.739 73.489-73.489 10.37-97.168 10.37-194.628 0-291.8zm0 0" fill="url(#dc)"/><path d="M7.672 409.805c.351 3.539.715 7.078 1.094 10.617 4.66 43.664 39.148 78.152 82.816 82.812 109.504 11.688 219.336 11.688 328.84 0 43.668-4.66 78.152-39.148 82.812-82.812.38-3.54.743-7.078 1.098-10.617zm0 0" fill="url(#dd)"/><path d="M503.234 420.418a1547.774 1547.774 0 008.711-176.7l-117.03-117.03c-14.622-16.692-35.978-27.11-61.071-28.012-51.606-1.86-103.375-1.766-154.989.008-42.867 1.476-72.843 30.289-80.53 72.636-1.356 7.477-2.169 15.051-3.235 22.582v124.149c.59 4.023 1.457 8.027 1.726 12.074 1.72 25.758 12.305 47.82 29.254 62.746l119.094 119.09c58.445.41 116.895-2.496 175.258-8.727 43.668-4.66 78.152-39.148 82.812-82.816zm0 0" fill="url(#de)"/><path d="M503.234 420.422c-4.656 43.66-39.152 78.156-82.812 82.812a1548.657 1548.657 0 01-175.254 8.727L126.254 393.047c13.785 12.066 31.754 19.414 52.605 20.2 51.602 1.937 103.383 1.886 154.985.026 46.672-1.687 80.445-36.23 81.902-82.902a2373.981 2373.981 0 000-148.793c-.664-21.531-8.223-40.476-20.754-54.812L511.95 243.723c.461 58.918-2.437 117.859-8.715 176.699zm0 0" fill="url(#df)"/><path d="M316.414 200.559c-14.992-16.325-36.504-26.567-60.414-26.567-45.29 0-82.008 36.719-82.008 82.008 0 23.91 10.242 45.422 26.567 60.414l189.738 189.738a1564.245 1564.245 0 0030.121-2.918c43.668-4.66 78.156-39.148 82.816-82.816a1564.245 1564.245 0 002.918-30.121zm0 0" fill="url(#dg)"/><path d="M511.008 311.152L358.305 158.453c-3.563-4.676-9.176-7.71-15.508-7.71-10.774 0-19.512 8.734-19.512 19.51 0 6.333 3.035 11.946 7.711 15.509l177.281 177.285a1537.438 1537.438 0 002.73-51.895zm0 0" fill="url(#dh)"/><path d="M95.09 193.902c1.066-7.53 1.879-15.105 3.234-22.582 7.684-42.347 37.664-71.16 80.531-72.636 51.614-1.774 103.383-1.868 154.989-.008 46.656 1.68 80.445 36.226 81.902 82.898 1.55 49.559 1.55 99.238 0 148.797-1.457 46.672-35.234 81.215-81.898 82.899-51.606 1.863-103.387 1.91-154.989-.028-46.664-1.754-78.922-36.379-82.043-83.12-.27-4.044-1.136-8.052-1.726-12.075V193.902zM256.043 385.61c23.617 0 47.258.707 70.844-.164 36.98-1.37 59.726-23.441 60.59-60.386a2973.28 2973.28 0 000-138.172c-.864-36.938-23.625-59.524-60.59-60.309a3343.88 3343.88 0 00-140.805 0c-36.684.77-59.496 22.899-60.492 59.43a2579.097 2579.097 0 000 139.933c.996 36.528 23.808 58.145 60.496 59.504 23.289.867 46.637.164 69.957.164zm0 0" fill="url(#di)"/><g fill="#fff"><path d="M95.09 193.902c1.066-7.53 1.879-15.105 3.234-22.582 7.684-42.347 37.664-71.16 80.531-72.636 51.614-1.774 103.383-1.868 154.989-.008 46.656 1.68 80.445 36.226 81.902 82.898 1.55 49.559 1.55 99.238 0 148.797-1.457 46.672-35.234 81.215-81.898 82.899-51.606 1.863-103.387 1.91-154.989-.028-46.664-1.754-78.922-36.379-82.043-83.12-.27-4.044-1.136-8.052-1.726-12.075V193.902zM256.043 385.61c23.617 0 47.258.707 70.844-.164 36.98-1.37 59.726-23.441 60.59-60.386a2973.28 2973.28 0 000-138.172c-.864-36.938-23.625-59.524-60.59-60.309a3343.88 3343.88 0 00-140.805 0c-36.684.77-59.496 22.899-60.492 59.43a2579.097 2579.097 0 000 139.933c.996 36.528 23.808 58.145 60.496 59.504 23.289.867 46.637.164 69.957.164zm0 0"/><path d="M256 173.996c-45.29 0-82.008 36.715-82.008 82.004 0 45.293 36.719 82.008 82.008 82.008 45.293 0 82.008-36.715 82.008-82.008 0-45.29-36.715-82.004-82.008-82.004zm0 135.777c-29.7 0-53.773-24.074-53.773-53.773S226.3 202.227 256 202.227 309.773 226.3 309.773 256 285.7 309.773 256 309.773zm0 0M362.305 170.254c0 10.773-8.735 19.508-19.508 19.508s-19.512-8.735-19.512-19.508c0-10.777 8.738-19.512 19.512-19.512s19.508 8.735 19.508 19.512zm0 0"/></g></svg><svg viewBox="0 0 219 58" id="logo"><path d="M0 57.043h31.636v-4.947H5.526V.957H0v56.086zM34.873 28.561C34.873 45.076 47.127 58 63.545 58c16.498 0 28.672-12.924 28.672-29.439C92.217 12.525 80.043 0 63.545 0 47.127 0 34.873 12.525 34.873 28.561zm5.766 0c0-13.243 9.771-23.375 22.906-23.375 13.215 0 22.906 10.132 22.906 23.375 0 13.722-9.691 24.253-22.906 24.253-13.135 0-22.906-10.53-22.906-24.253zM101.043 28.96c0 16.674 12.173 29.04 27.631 29.04 7.448 0 14.336-3.191 18.34-7.58h.16s-.08 1.198-.08 2.394v4.229h5.046V30.237h-14.817v4.946h9.611v9.494c-4.405 4.946-10.972 8.137-17.7 8.137-12.894 0-22.425-10.132-22.425-23.934 0-13.243 9.211-23.694 22.906-23.694 6.007 0 12.814 2.313 16.739 5.584l3.043-4.228C143.971 2.074 136.523 0 129.475 0c-16.179 0-28.432 12.765-28.432 28.96zM161.656 28.561c0 16.515 12.253 29.439 28.672 29.439C206.826 58 219 45.076 219 28.561 219 12.525 206.826 0 190.328 0c-16.419 0-28.672 12.525-28.672 28.561zm5.766 0c0-13.243 9.771-23.375 22.906-23.375 13.215 0 22.906 10.132 22.906 23.375 0 13.722-9.691 24.253-22.906 24.253-13.135 0-22.906-10.53-22.906-24.253z"/></svg><svg fill="none" viewBox="0 0 32 40" id="medal" xmlns="http://www.w3.org/2000/svg"><path d="M9.33 6.207L5.656 0h6.669L16 6.207H9.33z" fill="#FB7B76"/><path d="M16 6.207L19.676 0h6.669l-3.676 6.207H16z" fill="#FF5364"/><path d="M23.159 6.559a1.38 1.38 0 00-1.338-1.042H10.178a1.366 1.366 0 00-1.338 1.041l-.993 3.973h16.304l-.994-3.972z" fill="#547580"/><path d="M16 40c8.76 0 15.862-7.102 15.862-15.862S24.76 8.276 16 8.276.138 15.378.138 24.138 7.239 40 16 40z" fill="#F0C419"/><path d="M30.407 17.51a15.859 15.859 0 00-19.849 21.531 15.863 15.863 0 1119.849-21.53z" fill="#F3D55B"/><path d="M20.131 37.242a.69.69 0 01-.19-.027 15.517 15.517 0 01-2.86-1.134.69.69 0 01-.106-1.157 7.68 7.68 0 001.635-1.713.69.69 0 011.137.78c-.323.47-.691.906-1.1 1.304.545.233 1.104.43 1.673.594a.69.69 0 01-.189 1.353zM23.83 35.227c-.78 0-1.56-.07-2.327-.212a.69.69 0 01-.496-.976c.317-.66.539-1.362.657-2.086a.69.69 0 011.362.22 8.94 8.94 0 01-.418 1.61 11.6 11.6 0 001.662.056.69.69 0 11.053 1.379c-.164.006-.329.009-.493.009zM24.73 32.69a.69.69 0 01-.688-.718 8.835 8.835 0 00-.18-2.184.69.69 0 111.35-.285c.115.55.185 1.107.208 1.668a10.52 10.52 0 001.508-.466.69.69 0 11.505 1.283 11.7 11.7 0 01-2.604.695.671.671 0 01-.098.007zM26.705 29.52a.69.69 0 01-.659-.486 9.642 9.642 0 00-.886-2.018.69.69 0 011.19-.698c.282.481.526.984.73 1.504.44-.276.86-.583 1.256-.92a.69.69 0 01.893 1.051 11.801 11.801 0 01-2.207 1.489.692.692 0 01-.317.077zM27.55 25.885c-.017 0-.035 0-.053-.002a.69.69 0 01-.51-.29 9.523 9.523 0 00-1.446-1.629.69.69 0 01.915-1.031c.41.364.79.76 1.138 1.183.337-.406.646-.836.923-1.286a.69.69 0 011.174.725 12.358 12.358 0 01-1.646 2.122.69.69 0 01-.494.208zM27.269 22.158a.69.69 0 01-.413-.137 9.063 9.063 0 00-1.86-1.077.69.69 0 11.542-1.27c.5.215.98.468 1.44.758.201-.499.366-1.011.494-1.534a.69.69 0 111.34.329c-.215.88-.525 1.734-.925 2.547a.691.691 0 01-.618.384zM25.859 18.71a.687.687 0 01-.211-.034 9.06 9.06 0 00-2.134-.417.69.69 0 01.097-1.376c.553.04 1.101.124 1.64.252.03-.535.017-1.072-.038-1.605a.69.69 0 111.372-.141c.094.906.08 1.821-.043 2.724a.69.69 0 01-.683.596zM11.87 37.242a.69.69 0 01-.19-1.353c.57-.163 1.128-.361 1.673-.594a8.689 8.689 0 01-1.1-1.304.69.69 0 011.137-.78 7.685 7.685 0 001.635 1.713.69.69 0 01-.107 1.157c-.913.472-1.87.852-2.859 1.134a.69.69 0 01-.19.027zM8.17 35.227c-.164 0-.329-.003-.493-.01a.69.69 0 11.052-1.378c.555.022 1.11.003 1.663-.056a8.944 8.944 0 01-.418-1.61.69.69 0 111.362-.22c.118.723.34 1.426.657 2.086a.69.69 0 01-.497.976 12.82 12.82 0 01-2.326.212zM7.269 32.69a.673.673 0 01-.099-.007 11.698 11.698 0 01-2.603-.695.69.69 0 11.504-1.283c.49.193.995.349 1.509.466.023-.56.092-1.119.208-1.668a.69.69 0 011.35.285 8.84 8.84 0 00-.18 2.184.69.69 0 01-.69.718zM5.295 29.52a.69.69 0 01-.317-.078 11.8 11.8 0 01-2.208-1.489.69.69 0 11.893-1.051c.396.337.816.644 1.256.92.205-.52.449-1.023.731-1.504a.69.69 0 011.19.698 9.642 9.642 0 00-.886 2.019.69.69 0 01-.66.484zM4.45 25.885a.69.69 0 01-.495-.209 12.359 12.359 0 01-1.646-2.121.69.69 0 111.174-.725c.277.45.586.88.923 1.286.348-.423.728-.819 1.138-1.183a.69.69 0 01.916 1.03 9.52 9.52 0 00-1.447 1.63.69.69 0 01-.564.292zM4.731 22.158a.69.69 0 01-.618-.384c-.4-.812-.71-1.667-.925-2.547a.69.69 0 111.34-.329c.127.523.293 1.036.494 1.535.459-.29.94-.544 1.44-.758a.69.69 0 11.541 1.27 9.06 9.06 0 00-1.86 1.076.69.69 0 01-.412.137zM6.141 18.71a.69.69 0 01-.683-.597 11.436 11.436 0 01-.043-2.724.69.69 0 111.372.141c-.055.533-.068 1.07-.038 1.605.539-.128 1.087-.212 1.64-.252a.69.69 0 01.097 1.376 9.059 9.059 0 00-2.134.417.688.688 0 01-.21.033z" fill="#F29C1F"/></svg><svg viewBox="0 0 24 24" id="phone" xmlns="http://www.w3.org/2000/svg"><path d="M18.246 15.876c-.784-.774-1.763-.774-2.542 0a148.6 148.6 0 00-1.773 1.778c-.16.165-.294.2-.49.09-.384-.21-.793-.38-1.163-.61-1.723-1.083-3.166-2.476-4.445-4.045-.634-.779-1.198-1.613-1.593-2.552-.08-.19-.065-.314.09-.469.594-.574 1.174-1.164 1.758-1.753.814-.819.814-1.778-.005-2.602-.464-.47-.929-.929-1.393-1.398-.48-.48-.954-.964-1.439-1.439-.784-.764-1.763-.764-2.542.005-.6.59-1.173 1.194-1.783 1.773C.362 5.19.077 5.843.017 6.607c-.094 1.244.21 2.417.64 3.56.879 2.368 2.217 4.47 3.84 6.398 2.193 2.607 4.81 4.67 7.871 6.158 1.378.67 2.807 1.184 4.36 1.269 1.069.06 1.998-.21 2.742-1.044.51-.57 1.083-1.089 1.623-1.633.799-.81.804-1.788.01-2.587a768.058 768.058 0 00-2.857-2.852zM17.292 11.896l1.843-.315a8.237 8.237 0 00-2.302-4.444 8.192 8.192 0 00-4.695-2.343l-.26 1.853a6.356 6.356 0 013.636 1.813 6.355 6.355 0 011.778 3.436zM20.174 3.885A13.589 13.589 0 0012.383 0l-.26 1.853a11.782 11.782 0 016.732 3.356 11.773 11.773 0 013.301 6.367L24 11.262a13.688 13.688 0 00-3.825-7.377z"/></svg><svg fill="none" viewBox="0 0 22 22" id="russia" xmlns="http://www.w3.org/2000/svg"><g clip-path="url(#hclip0)"><path d="M11 22c6.075 0 11-4.925 11-11S17.075 0 11 0 0 4.925 0 11s4.925 11 11 11z" fill="#F0F0F0"/><path d="M21.316 14.826c.442-1.192.684-2.48.684-3.826s-.242-2.635-.684-3.826H.684A10.976 10.976 0 000 11c0 1.345.242 2.634.684 3.826L11 15.783l10.316-.957z" fill="#0052B4"/><path d="M10.998 22c4.73 0 8.762-2.985 10.316-7.174H.682C2.237 19.015 6.27 22 10.998 22z" fill="#D80027"/></g><defs><clipPath id="hclip0"><path fill="#fff" d="M0 0h22v22H0z"/></clipPath></defs></svg><svg fill="none" viewBox="0 0 70 70" id="second-place" xmlns="http://www.w3.org/2000/svg"><path d="M28.997 40.47a12.915 12.915 0 01-8.376-3.088 13.008 13.008 0 01-4.586-9.922v-3.572c0-.413.162-.801.454-1.093.291-.29.678-.45 1.09-.45h.003l9.353.02a1.056 1.056 0 01-.002 2.113h-.003l-8.782-.02v3.002c0 3.205 1.4 6.234 3.842 8.312a10.797 10.797 0 008.737 2.446l.328-.055a1.057 1.057 0 01.364 2.08 12.911 12.911 0 01-2.423.227zM41.003 40.47c-.688 0-1.379-.055-2.068-.166a29.56 29.56 0 01-.355-.06 1.056 1.056 0 01.365-2.081c.11.02.22.038.328.055 3.13.507 6.314-.384 8.737-2.446a10.898 10.898 0 003.842-8.312V24.46l-8.783.02h-.002a1.056 1.056 0 01-.002-2.114l9.353-.02h.004c.41 0 .798.16 1.09.45.291.292.453.68.453 1.093v3.572c0 3.825-1.672 7.442-4.586 9.922a12.917 12.917 0 01-8.376 3.088z" fill="#FFB125"/><path d="M28.054 55.78h13.892c-5.754-7.297-5.154-17.814-5.154-17.814h-3.584s.6 10.517-5.154 17.814z" fill="#FED130"/><path d="M36.792 37.967h-3.584s.093 1.632-.146 4.058c-.456 4.622.69 9.285 3.396 13.061.168.234.342.466.522.694h4.966c-5.754-7.297-5.154-17.813-5.154-17.813z" fill="#F7BC14"/><path d="M24.52 19.317v9.217a17.16 17.16 0 006.982 13.815 5.897 5.897 0 006.996 0 17.16 17.16 0 006.98-13.815v-9.217H24.522z" fill="#FED130"/><path d="M40.49 19.317v9.217a17.16 17.16 0 01-6.982 13.815 5.894 5.894 0 01-1.003.595c1.928.9 4.23.703 5.992-.595a17.16 17.16 0 006.982-13.815v-9.217h-4.99z" fill="#F7BC14"/><path d="M46.23 20.757H23.77a.613.613 0 01-.613-.613v-2.54c0-.338.275-.613.613-.613h22.46c.339 0 .613.275.613.613v2.54a.613.613 0 01-.613.613z" fill="#FFB125"/><path d="M46.377 17H42v3.766h4.377a.613.613 0 00.612-.613v-2.54a.613.613 0 00-.612-.613z" fill="#FF901D"/><path d="M46.917 60.234h-23.74a.494.494 0 01-.464-.666l1.763-4.776a.494.494 0 01.464-.324h20.214c.207 0 .392.13.464.323l1.763 4.777a.494.494 0 01-.464.666z" fill="#FFB125"/><path d="M47.38 59.568l-1.762-4.776a.494.494 0 00-.464-.324h-4.822l2.128 5.766h4.457a.494.494 0 00.464-.666z" fill="#FF901D"/></svg><svg viewBox="0 0 52 52" id="union" xmlns="http://www.w3.org/2000/svg"><g clip-path="url(#jclip0)"><path fill-rule="evenodd" clip-rule="evenodd" d="M31.665 18.67c.113-.42.36-.92.55-1.207 1.365-2.568 4.497-3.309 6.932-1.866 2.435 1.442 3.31 4.498 1.867 6.932-.247.499-.57.863-.893 1.228-.324.365-.724.596-1.125.827a23.165 23.165 0 00-8.703 8.051c-1.232 2.492-2.042 5.096-2.355 7.946l-.385-.667c-.308-.534-.96-1.048-1.536-1.428-.326-.256-.686-.494-1.046-.731-.36-.238-.719-.475-1.045-.732 1.982-1.5 3.733-3.4 4.985-5.548 1.858-3.565 2.797-7.49 2.626-11.485-.098-.477.015-.899.128-1.32zm-1.448 1.192l.108-1.664c.112-.42.225-.842.549-1.207-2.558 1.12-5.346 1.84-8.176 1.872-2.142-.01-4.381-.497-6.43-1.271-1.63-.662-3.257-1.324-4.83-2.197-.133-.066-.251-.128-.361-.185-.3-.158-.537-.282-.845-.364-.422-.113-.843-.226-1.32-.128-2.83.031-5.249 2.318-5.217 5.148.032 2.83 2.241 5.114 5.071 5.083.899.015 1.777-.314 2.578-.777 3.394-2.137 7.405-3.207 11.4-3.378 2.43.2 4.803.61 7.14 1.575.092-.765.184-1.53.333-2.507zM27.596 45.23c.338-1.264.178-2.774-.438-3.842l-.463-.801a7.514 7.514 0 00-1.382-1.16c-3.564-1.858-6.56-4.58-8.697-7.974-1.234-2.136-1.933-4.58-2.288-7.045-.319.183-.655.337-1.006.497-.385.176-.788.36-1.207.602-.801.463-1.89.735-2.712.854 2.379 1.653 4.223 3.614 5.688 6.15 1.87 3.55 2.73 7.504 2.69 11.443-.036.554.139 1.166.313 1.777l.463.8c1.387 2.404 4.68 3.173 7.006 1.652.857-.673 1.694-1.69 2.033-2.953z"/></g><defs><clipPath id="jclip0"><path transform="rotate(60 32.955 .046)" d="M32.955.046h38v38h-38z"/></clipPath></defs></svg><svg fill="none" viewBox="0 0 34 34" id="vk" xmlns="http://www.w3.org/2000/svg"><path d="M34 0H0v34h34V0z" fill="#4C77A6"/><path d="M9.595 10.983c.739 1.82 1.671 3.536 2.902 5.073.164.202.366.388.582.537.314.217.612.142.746-.224.135-.38.261-1.149.269-1.551.022-1.045 0-1.724-.06-2.768-.037-.665-.276-1.254-1.253-1.433-.306-.052-.329-.306-.135-.552.403-.515.97-.597 1.582-.634.993-.052 1.985-.008 2.977 0 .403 0 .814.037 1.209.127.522.111.798.477.88.984.045.262.067.53.06.799-.022 1.134-.082 2.275-.097 3.41-.007.447.03.902.12 1.335.134.604.544.761.97.32.537-.559 1.007-1.178 1.447-1.812.806-1.157 1.41-2.425 1.925-3.73.268-.672.47-.822 1.2-.822 1.366 0 2.732-.007 4.097 0 .239 0 .493.023.724.098.373.119.515.417.433.805-.202.896-.687 1.664-1.21 2.395-.835 1.18-1.708 2.328-2.566 3.492-.112.15-.201.306-.29.47-.322.575-.3.903.17 1.38.74.769 1.538 1.485 2.254 2.269a13.455 13.455 0 011.418 1.843c.522.828.201 1.604-.776 1.745-.612.09-3.619 0-3.775 0a2.931 2.931 0 01-2.09-.835c-.634-.612-1.208-1.284-1.82-1.918a5.731 5.731 0 00-.59-.537c-.5-.38-.984-.298-1.216.291-.201.5-.373 1.82-.38 1.932-.045.59-.418.963-1.075 1-1.902.105-3.752-.112-5.469-1.03-1.454-.783-2.618-1.887-3.633-3.17-1.604-2.045-2.865-4.29-4.022-6.603-.06-.12-1.23-2.612-1.26-2.724-.105-.395-.008-.768.328-.902.209-.083 4.066 0 4.126 0 .619.044 1.037.305 1.298.94z" fill="#fff"/></svg><svg fill="none" viewBox="0 0 22 22" id="worldwide" xmlns="http://www.w3.org/2000/svg"><path d="M18.961 3.417l-1.138.759-1.896-.38-1.138-.379-1.518.38-1.138-.38.759-1.517h1.517l1.487-.744a10.864 10.864 0 013.065 2.261zM10.239 1.9l-.38 1.137-1.138.38-1.138 1.896-1.896 1.138-2.656.38v1.138l.759.758v1.518l-1.138-.759-1.138-.759-.66-1.983A10.994 10.994 0 016.885.799l1.078.721 2.276.38zM11 12.521l-.379 1.897-1.517 1.517v1.138l-1.518 1.138v1.897l-1.138-.38-.758-1.896v-3.794l-1.897-.379-.759-1.517v-1.138l.76-.759L4.93 9.107l.759 1.517h2.655l1.138 1.897h1.518zM20.596 5.628a10.99 10.99 0 01-.607 11.71l-1.024-1.024v-1.517l-.76-1.518-.758-1.517v-1.517l-1.138-.759-1.517.38-2.656-1.139-.379-2.655 1.138-1.138h2.276l.759 1.138 2.276.38 2.276-.76.114-.064z" fill="#03AA6F"/><path d="M13.275 3.796l1.518-.379 1.138.38 1.896.379 1.138-.759a10.836 10.836 0 011.631 2.212l-.113.064-2.276.759-2.276-.38-.759-1.138h-2.276l-1.138 1.138.38 2.656 2.655 1.138 1.517-.38 1.138.76v1.517l.759 1.517.758 1.517v1.518l1.025 1.024c-3.504 4.964-10.368 6.148-15.331 2.645A11.001 11.001 0 01.856 6.744l.66 1.984 1.138.758 1.138.76-.759.758v1.138l.759 1.517 1.897.38v3.793l.758 1.897 1.138.379v-1.897l1.518-1.138v-1.138l1.517-1.517.38-1.897H9.481l-1.138-1.897H5.689l-.76-1.517-1.137 1.138V8.728l-.759-.759V6.831l2.656-.38 1.896-1.137 1.138-1.897 1.138-.38.38-1.137-2.276-.38L6.887.8a11.001 11.001 0 019.013.356l-1.487.744h-1.517l-.759 1.517 1.138.38z" fill="#86DAF1"/></svg></svg>