<svg xmlns="http://www.w3.org/2000/svg" viewBox="0 0 492.322 492.322"><path d="M394.125 208.365c-2.711-3.88-8.548-11.216-8.961-11.712C286.423 88.029 261.894 24.678 256.731 7.856 255.289 3.159 251.039 0 246.144 0 241.25 0 237 3.159 235.558 7.851c-5.164 16.832-29.692 80.192-128.837 189.298 0 0-5.837 7.337-8.548 11.212-24.654 35.212-35.894 78.418-31.644 121.668 8.26 84.106 75.173 151.875 159.106 161.144a189.803 189.803 0 0020.798 1.149c44.529 0 86.567-15.981 120.115-46.029 38.212-34.221 60.125-83.25 60.125-134.51 0-37.24-11.259-72.999-32.548-103.418zm-40.711 223.26c-34.519 30.918-79.115 45.111-125.625 39.971-74.721-8.25-134.308-68.601-141.664-143.49-3.788-38.577 6.221-77.087 28.183-108.452 2.394-3.418 7.442-9.774 7.423-9.774 77.038-84.76 110.413-143.683 124.413-174.933 13.981 31.231 47.289 90.063 124.029 174.462.029.038 5.346 6.712 7.817 10.245 18.962 27.096 28.99 58.952 28.99 92.13.001 45.668-19.528 89.351-53.566 119.841z"/><path d="M136.51 323.144l-19.596 1.933c5.846 59.442 54.981 109.216 114.279 115.774l2.173-19.577c-50.26-5.553-91.895-47.74-96.856-98.13z"/></svg>